HIERARCHY
ROOT Hips
{
 OFFSET 0.000000 0.000000 0.000000
 CHANNELS 6 Xposition Yposition Zposition Yrotation Xrotation Zrotation
 JOINT Chest
 {
  OFFSET 0.000000 9.581000 -0.001100
  CHANNELS 3 Yrotation Xrotation Zrotation
  JOINT Chest2
  {
   OFFSET 0.000000 9.561100 0.002200
   CHANNELS 3 Yrotation Xrotation Zrotation
   JOINT Chest3
   {
    OFFSET 0.000000 9.521100 0.000000
    CHANNELS 3 Yrotation Xrotation Zrotation
    JOINT Chest4
    {
     OFFSET 0.000000 9.511400 0.000000
     CHANNELS 3 Yrotation Xrotation Zrotation
     JOINT Neck
     {
      OFFSET 0.000000 14.375100 0.000000
      CHANNELS 3 Yrotation Xrotation Zrotation
      JOINT Head
      {
       OFFSET 0.000000 8.901200 0.004600
       CHANNELS 3 Yrotation Xrotation Zrotation
       End Site
       {
        OFFSET 0.000000 16.962200 0.002400
       }
      }
     }
     JOINT RightCollar
     {
      OFFSET -2.920100 9.518800 0.000000
      CHANNELS 3 Yrotation Xrotation Zrotation
      JOINT RightShoulder
      {
       OFFSET -13.664500 0.000000 0.000000
       CHANNELS 3 Yrotation Xrotation Zrotation
       JOINT RightElbow
       {
        OFFSET 0.000000 -29.999200 0.000000
        CHANNELS 3 Yrotation Xrotation Zrotation
        JOINT RightWrist
        {
         OFFSET 0.000000 -24.253600 0.000000
         CHANNELS 3 Yrotation Xrotation Zrotation
         End Site
         {
          OFFSET 0.000000 -17.918900 0.000000
         }
        }
       }
      }
     }
     JOINT LeftCollar
     {
      OFFSET 2.920100 9.518800 0.000000
      CHANNELS 3 Yrotation Xrotation Zrotation
      JOINT LeftShoulder
      {
       OFFSET 13.664500 0.000000 0.000000
       CHANNELS 3 Yrotation Xrotation Zrotation
       JOINT LeftElbow
       {
        OFFSET 0.000000 -29.999200 0.000000
        CHANNELS 3 Yrotation Xrotation Zrotation
        JOINT LeftWrist
        {
         OFFSET 0.000000 -24.253600 0.000000
         CHANNELS 3 Yrotation Xrotation Zrotation
         End Site
         {
          OFFSET 0.000000 -17.918900 0.000000
         }
        }
       }
      }
     }
    }
   }
  }
 }
 JOINT RightHip
 {
  OFFSET -7.797300 0.005300 0.000500
  CHANNELS 3 Yrotation Xrotation Zrotation
  JOINT RightKnee
  {
   OFFSET 0.000000 -40.663400 -0.000500
   CHANNELS 3 Yrotation Xrotation Zrotation
   JOINT RightAnkle
   {
    OFFSET 0.000000 -39.523700 -0.000900
    CHANNELS 3 Yrotation Xrotation Zrotation
    JOINT RightToe
    {
     OFFSET 0.000000 -6.418000 14.485300
     CHANNELS 3 Yrotation Xrotation Zrotation
     End Site
     {
      OFFSET 0.000000 -1.465200 6.326400
     }
    }
   }
  }
 }
 JOINT LeftHip
 {
  OFFSET 7.797300 0.005300 0.000500
  CHANNELS 3 Yrotation Xrotation Zrotation
  JOINT LeftKnee
  {
   OFFSET 0.000000 -40.663400 -0.000500
   CHANNELS 3 Yrotation Xrotation Zrotation
   JOINT LeftAnkle
   {
    OFFSET 0.000000 -39.523700 -0.000900
    CHANNELS 3 Yrotation Xrotation Zrotation
    JOINT LeftToe
    {
     OFFSET 0.000000 -6.418000 14.485300
     CHANNELS 3 Yrotation Xrotation Zrotation
     End Site
     {
      OFFSET 0.000000 -1.465200 6.326400
     }
    }
   }
  }
 }
}
MOTION
Frames: 15
Frame Time: 0.008333
0.000000 86.422400 0.000000 0.000000 -5.767877 0.000000 0.000000 11.653817 0.000000 0.000000 -5.885947 0.000000 0.000000 -0.000000 0.000000 0.000000 -0.000000 0.000000 0.000000 12.528835 0.000000 0.000000 0.711642 0.000000 0.000000 -0.000000 0.000000 0.000000 0.000000 -90.000000 0.000000 -2.309062 0.000000 0.000000 2.309062 0.000000 0.000000 -0.000000 0.000000 0.000000 -0.000000 90.000000 0.000000 -2.309062 0.000000 0.000000 2.309062 0.000000 0.000000 8.520406 0.000000 0.000000 1.905762 0.000000 -0.000000 -4.658285 0.000000 0.000000 -0.000000 0.000000 0.000000 8.520406 0.000000 0.000000 1.905762 0.000000 -0.000000 -4.658285 0.000000 0.000000 -0.000000 0.000000
-15.184800 126.902496 20.282274 -171.276033 -46.892509 -3.005491 -1.404140 25.047973 -1.130662 -0.184224 3.970193 -0.134354 -0.299662 6.352345 -0.221470 -1.110413 20.761498 -0.879885 0.051851 10.873797 -0.713519 0.216755 -14.209498 -0.759482 3.400166 1.817903 2.594257 -9.461134 -18.375402 -8.039356 -134.585832 -57.282063 172.310936 5.669002 -10.555678 -18.737782 -8.543142 -1.499547 -1.112866 -8.678050 -17.803707 9.353973 53.256058 -56.835684 -97.179122 -1.501015 -10.725463 9.213078 -4.826058 -25.305388 -2.225307 -3.491033 78.100526 -1.706770 10.875231 -11.331964 1.428356 0.003485 -0.003201 0.001544 7.079953 3.640621 2.598713 129.385023 65.689261 150.102742 3.591011 12.261197 5.297297 0.007391 -0.011434 0.003274
-15.184665 126.901246 20.282949 -171.255688 -46.877032 -3.046109 -1.414293 25.031667 -1.136011 -0.195777 3.963117 -0.168882 -0.302600 6.343986 -0.231066 -1.088880 20.764476 -0.860882 0.156474 10.881271 -0.670179 0.351041 -14.186587 -0.704032 3.390094 1.792606 2.524444 -9.857376 -18.831793 -7.769704 -133.888254 -57.276290 171.433206 5.198322 -10.420775 -19.650500 -8.606155 -1.560960 -1.177624 -8.836869 -17.744704 9.419798 52.663676 -56.585793 -96.773848 -1.509575 -10.631082 9.201283 -4.812496 -25.311709 -2.217225 -3.501495 78.095384 -1.681196 10.884348 -11.331325 1.428303 0.003811 -0.001870 0.001689 7.073756 3.625807 2.617628 129.419241 65.680527 150.147180 3.604898 12.243687 5.289939 0.010122 -0.005902 0.004485
-15.186238 126.900733 20.283159 -171.243546 -46.868515 -3.074858 -1.422901 25.021954 -1.147308 -0.206661 3.957707 -0.201041 -0.305910 6.336680 -0.240225 -1.069090 20.763916 -0.845307 0.250662 10.891180 -0.627466 0.473681 -14.166508 -0.651201 3.381204 1.783333 2.458549 -10.230017 -19.303455 -7.503332 -133.088353 -57.300975 170.465959 4.722194 -10.041770 -20.498454 -8.669475 -1.616472 -1.241984 -8.996487 -17.685980 9.492208 52.065648 -56.333853 -96.344234 -1.506332 -10.537557 9.224327 -4.813437 -25.313149 -2.199137 -3.484300 78.093149 -1.651714 10.852539 -11.335432 1.431018 0.001663 -0.001284 0.000737 7.076541 3.621477 2.629682 129.400670 65.677571 150.138984 3.607282 12.253319 5.295118 0.007571 -0.000706 0.003354
-15.188049 126.900403 20.283390 -171.228307 -46.862312 -3.107152 -1.439880 25.014656 -1.185485 -0.209336 3.953859 -0.204216 -0.309143 6.331981 -0.248340 -1.087942 20.747954 -0.882607 0.378127 10.912592 -0.548807 0.585403 -14.153341 -0.603738 3.408474 1.792468 2.437171 -10.564395 -19.781329 -7.249740 -132.213419 -57.341500 169.431044 4.219009 -9.349734 -21.288635 -8.700239 -1.648368 -1.268285 -9.154951 -17.631300 9.568726 51.471154 -56.083576 -95.900686 -1.490880 -10.445582 9.289655 -4.817568 -25.311800 -2.188784 -3.438669 78.089297 -1.595225 10.862297 -11.338265 1.428743 0.002666 -0.000958 0.001181 7.074558 3.614262 2.641771 129.393410 65.669646 150.138799 3.611888 12.257385 5.293440 0.005114 0.001283 0.002266
-15.191298 126.900156 20.283891 -171.215340 -46.858775 -3.130750 -1.460060 25.009319 -1.232581 -0.199966 3.953650 -0.176716 -0.325444 6.327616 -0.279546 -1.154354 20.729512 -0.981034 0.541181 10.932662 -0.430256 0.694994 -14.150740 -0.564999 3.485853 1.801277 2.466161 -10.853248 -20.252858 -7.021284 -131.318603 -57.377327 168.364651 3.664913 -8.288086 -22.028480 -8.685556 -1.668696 -1.251604 -9.306015 -17.582721 9.646576 50.880923 -55.836895 -95.459579 -1.466481 -10.351443 9.402822 -4.818298 -25.308292 -2.181694 -3.429067 78.084981 -1.576631 10.853886 -11.344358 1.426575 0.001641 -0.000601 0.000727 7.079458 3.605845 2.637931 129.372492 65.655702 150.133238 3.618629 12.262326 5.290501 0.002499 -0.000794 0.001107
-15.195495 126.900042 20.284606 -171.210514 -46.858748 -3.143546 -1.476113 25.005244 -1.276520 -0.191479 3.955355 -0.155262 -0.340599 6.326425 -0.306503 -1.184717 20.725605 -1.023023 0.636350 10.938073 -0.361650 0.812057 -14.159953 -0.536550 3.534667 1.794521 2.461427 -11.091975 -20.708566 -6.834577 -130.440010 -57.378744 167.288677 3.036865 -6.826820 -22.714318 -8.700194 -1.705990 -1.276700 -9.445406 -17.541948 9.726571 50.300067 -55.593310 -95.035109 -1.436721 -10.252094 9.559963 -4.816124 -25.304581 -2.182088 -3.405190 78.083152 -1.547426 10.856928 -11.346627 1.425146 0.002711 0.000448 0.001201 7.083407 3.597911 2.641325 129.403263 65.650149 150.167056 3.628457 12.269229 5.286774 0.004347 0.002321 0.001926
-15.197627 126.899806 20.285515 -171.190695 -46.858627 -3.179710 -1.507800 25.001543 -1.345569 -0.195775 3.955883 -0.161967 -0.315076 6.329778 -0.256236 -1.205293 20.726304 -1.051045 0.724010 10.929724 -0.315063 0.900479 -14.169874 -0.511756 3.572413 1.776675 2.451323 -11.289881 -21.144366 -6.695906 -129.587136 -57.312572 166.228202 2.301022 -4.960984 -23.318012 -8.713693 -1.736483 -1.296297 -9.586891 -17.520063 9.788170 49.740981 -55.354146 -94.634200 -1.400051 -10.152073 9.748734 -4.837012 -25.298517 -2.161213 -3.384967 78.079533 -1.530144 10.851213 -11.349892 1.426472 0.003065 -0.000237 0.001358 7.078726 3.585031 2.652025 129.407961 65.638798 150.180121 3.628269 12.283771 5.305548 0.005103 0.001960 0.002261
-15.200641 126.899341 20.286957 -171.169843 -46.858614 -3.210980 -1.522123 25.003882 -1.365097 -0.197258 3.957188 -0.164267 -0.306527 6.327494 -0.231529 -1.236371 20.731794 -1.093652 0.839017 10.907719 -0.277353 0.942698 -14.175262 -0.481812 3.611692 1.747992 2.448439 -11.462637 -21.560675 -6.597109 -128.775072 -57.168058 165.218186 1.432630 -2.743537 -23.774268 -8.746244 -1.773737 -1.327431 -9.708180 -17.493761 9.860726 49.211764 -55.124464 -94.264623 -1.346534 -10.058045 9.954756 -4.852205 -25.292167 -2.149706 -3.353037 78.076081 -1.496395 10.834126 -11.356427 1.428540 0.001841 -0.000166 0.000816 7.074957 3.570168 2.653408 129.402013 65.621021 150.185306 3.629383 12.291904 5.313375 0.005379 0.000649 0.002383
-15.202372 126.899292 20.288153 -171.154711 -46.863239 -3.245683 -1.525911 25.012284 -1.372917 -0.194858 3.956832 -0.149532 -0.317290 6.328303 -0.253946 -1.223454 20.734209 -1.078305 0.895495 10.899850 -0.258762 1.013268 -14.191237 -0.461528 3.639748 1.719328 2.436670 -11.614488 -21.957692 -6.526307 -128.017123 -56.965990 164.279415 0.469663 -0.314437 -23.997493 -8.810509 -1.814477 -1.387898 -9.808399 -17.460688 9.943643 48.717722 -54.906247 -93.927927 -1.272448 -9.970680 10.159136 -4.855338 -25.279488 -2.143317 -3.301493 78.068658 -1.431713 10.847085 -11.360844 1.431191 0.001629 -0.000179 0.000722 7.070548 3.564461 2.670722 129.405178 65.616221 150.190621 3.634443 12.318714 5.334348 0.006474 0.008201 0.002869
-15.204505 126.899191 20.289654 -171.138166 -46.868790 -3.278220 -1.531612 25.021197 -1.382614 -0.191815 3.958089 -0.135133 -0.330831 6.339647 -0.290749 -1.202032 20.728035 -1.047430 0.948318 10.893718 -0.237768 1.077754 -14.204218 -0.440528 3.678845 1.687169 2.434817 -11.742323 -22.332650 -6.472984 -127.304523 -56.739739 163.403187 -0.494729 2.138623 -23.877676 -8.852936 -1.843937 -1.424169 -9.915617 -17.440831 10.001394 48.264668 -54.697270 -93.618162 -1.186346 -9.890902 10.341474 -4.873621 -25.268040 -2.126613 -3.282639 78.062060 -1.416727 10.847897 -11.367090 1.440198 0.002587 -0.001318 0.001146 7.065462 3.559893 2.684383 129.402367 65.610804 150.195697 3.635162 12.334248 5.331594 0.009317 0.012847 0.004129
-15.207532 126.899375 20.291161 -171.123151 -46.878255 -3.303398 -1.536509 25.033705 -1.395619 -0.200058 3.965101 -0.168429 -0.319641 6.334836 -0.247804 -1.221353 20.737057 -1.072522 1.019002 10.889112 -0.199081 1.134167 -14.210849 -0.416259 3.750063 1.648783 2.455057 -11.835671 -22.680491 -6.431617 -126.631096 -56.519248 162.579349 -1.356990 4.455693 -23.309126 -8.848996 -1.863297 -1.417029 -10.033189 -17.434348 10.025912 47.852409 -54.493500 -93.336155 -1.100170 -9.824112 10.489991 -4.881891 -25.254127 -2.121082 -3.276376 78.057041 -1.405843 10.840460 -11.370358 1.447156 0.002035 -0.001321 0.000901 7.069015 3.548544 2.691829 129.401494 65.609097 150.186954 3.658665 12.359841 5.364323 -0.001480 0.006382 -0.000656
-15.207870 126.900204 20.292097 -171.086964 -46.892028 -3.359149 -1.542896 25.052145 -1.387698 -0.200423 3.968903 -0.169274 -0.326905 6.350142 -0.278056 -1.214265 20.730108 -1.049016 1.062897 10.882011 -0.165593 1.198442 -14.197482 -0.384013 3.829630 1.610124 2.481366 -11.884677 -22.993247 -6.402805 -125.999830 -56.316329 161.823564 -2.015580 6.510432 -22.248696 -8.860517 -1.895674 -1.448796 -10.138465 -17.407482 10.081139 47.475775 -54.294511 -93.084844 -1.020520 -9.774816 10.599815 -4.908551 -25.231608 -2.099278 -3.289242 78.048828 -1.411551 10.841214 -11.370493 1.453849 0.001534 -0.002895 0.000679 7.057938 3.537452 2.713991 129.410693 65.601754 150.199758 3.679340 12.397306 5.374273 -0.006743 0.006882 -0.002988
-15.211255 126.899847 20.294548 -171.076374 -46.899174 -3.374943 -1.539316 25.061941 -1.394771 -0.197028 3.974549 -0.176624 -0.326703 6.357110 -0.279072 -1.223977 20.735525 -1.052933 1.099153 10.871872 -0.131156 1.253988 -14.165447 -0.342043 3.920730 1.567112 2.515879 -11.895970 -23.264167 -6.388631 -125.408991 -56.120036 161.176621 -2.380559 8.191102 -20.735328 -8.862344 -1.929533 -1.475063 -10.238865 -17.385204 10.128673 47.135116 -54.103102 -92.869075 -0.947913 -9.741171 10.670701 -4.909652 -25.224254 -2.103975 -3.281688 78.047024 -1.398109 10.847108 -11.369951 1.458900 0.001772 -0.002201 0.000785 7.067007 3.520775 2.713859 129.406151 65.594456 150.204046 3.692951 12.433279 5.388577 -0.008471 0.008666 -0.003754
-15.214410 126.899163 20.297420 -171.059607 -46.904253 -3.393986 -1.544351 25.068629 -1.392143 -0.193510 3.978004 -0.183604 -0.323274 6.365007 -0.286946 -1.227494 20.747113 -1.060598 1.145832 10.880794 -0.087435 1.282921 -14.133361 -0.292379 4.016316 1.528298 2.555020 -11.890143 -23.494037 -6.388536 -124.864474 -55.915285 160.701705 -2.393603 9.450512 -18.906215 -8.861204 -1.955933 -1.483128 -10.322543 -17.376860 10.157859 46.832026 -53.919830 -92.692598 -0.885800 -9.721041 10.708747 -4.911005 -25.216402 -2.115764 -3.238503 78.042527 -1.341990 10.850321 -11.371928 1.466422 0.001739 -0.000380 0.000771 7.072268 3.495454 2.713218 129.405827 65.583140 150.213880 3.699015 12.467868 5.423942 -0.007931 0.006778 -0.003514
